PathFileType	4	(X/Y/Z)	D:\Share\Shared_Data\Ergonomics\Sit To Stand Pertubation\S3\Unperturbed.trc
DataRate	CameraRate	NumFrames	NumMarkers	Units	OrigDataRate	OrigDataStartFrame	OrigNumFrames	
100	100	17	18	m	100	2081	211
Frame#	Time	R_Thigh			R_ASIS			R_Pelvis			V_Sacral			L_Pelvis			L_ASIS			Clavical			R_Acromium			L_Acromium			Sternum			Torso			R_Thigh_Med			R_Thigh_Lat			R_Shank_Med			R_Shank_Lat			R_Shank			R_Heel			R_Toe			
		X1	Y1	Z1	X2	Y2	Z2	X3	Y3	Z3	X4	Y4	Z4	X5	Y5	Z5	X6	Y6	Z6	X7	Y7	Z7	X8	Y8	Z8	X9	Y9	Z9	X10	Y10	Z10	X11	Y11	Z11	X12	Y12	Z12	X13	Y13	Z13	X14	Y14	Z14	X15	Y15	Z15	X16	Y16	Z16	X17	Y17	Z17	X18	Y18	Z18	

2081	20.8	0.14436975	0.58014221	0.1092654	-0.027002573	0.64889868	0.14140392	-0.13720045	0.62536261	0.19110829	-0.24498338	0.62180054	0.0050652103	-0.13329289	0.64830249	-0.19875169	-0.027057129	0.6534455	-0.13863501	-0.044689068	1.036155	0.0036320784	-0.10707285	1.0972621	0.16170355	-0.062134109	1.0890586	-0.15801802	-0.023835207	0.95627588	0.0069712605	-0.030909353	1.0186708	-0.060566193	0.33056702	0.46935361	0.076305687	0.31210785	0.44940341	0.1935063	0.25769138	0.10758567	0.093725609	0.23469322	0.099155586	0.17344939	0.25636935	0.27274698	0.19794199	0.17956458	0.05811319	0.12755081	0.39757034	0.051324883	0.13447964
2082	20.81	0.1444288	0.5801272	0.10917648	-0.02684203	0.64897333	0.14135391	-0.13706706	0.62547339	0.1911904	-0.24491922	0.62184302	0.0050573225	-0.13328395	0.64829047	-0.19880896	-0.026980057	0.65339783	-0.13876239	-0.044569908	1.0362004	0.0034947507	-0.10713559	1.0972881	0.161485	-0.061715641	1.0890681	-0.15817754	-0.023666059	0.95632019	0.0067594962	-0.030669548	1.0187072	-0.060710976	0.33060657	0.46932825	0.076205391	0.31215854	0.44939868	0.19341997	0.25769617	0.10758228	0.093713928	0.2346754	0.099168159	0.17345944	0.25638821	0.27275522	0.19789136	0.17956715	0.05811668	0.12755184	0.39757193	0.051324562	0.13447404
2083	20.82	0.14446971	0.58011676	0.10906758	-0.02672834	0.64904077	0.14129695	-0.13697186	0.62557892	0.19124901	-0.2448614	0.62188312	0.005014924	-0.13326405	0.64827527	-0.19888318	-0.026900702	0.65335413	-0.13889384	-0.04447147	1.0362501	0.003370599	-0.10726833	1.0973102	0.16127054	-0.061269295	1.0891089	-0.15834837	-0.023521383	0.95636731	0.0065843129	-0.030447809	1.0187458	-0.060837845	0.33062357	0.46930301	0.076072136	0.31219513	0.44940277	0.19330554	0.25770044	0.10757817	0.093699623	0.23465427	0.099183167	0.17346941	0.25639191	0.2727659	0.19782544	0.17956876	0.05812014	0.12755202	0.39757156	0.051326981	0.13446869
2084	20.83	0.1444933	0.58011151	0.10893978	-0.026664524	0.64909595	0.14123082	-0.13691617	0.62567566	0.19127087	-0.24480911	0.62192133	0.0049388065	-0.13323212	0.64825391	-0.19897441	-0.026820568	0.65331506	-0.13902715	-0.044390778	1.0363022	0.0032582052	-0.10746011	1.09733	0.16106213	-0.060814781	1.0891746	-0.15852715	-0.023400297	0.95641711	0.0064474111	-0.030248106	1.018783	-0.060947739	0.33061819	0.46927768	0.075907288	0.31221628	0.44941547	0.19316383	0.25770398	0.10757319	0.093682823	0.23463611	0.09919957	0.17347537	0.25638171	0.27277951	0.19774513	0.17956909	0.058122871	0.12755112	0.39756927	0.051332195	0.13446373
2085	20.84	0.14450009	0.58011206	0.10879424	-0.026649189	0.64913635	0.14115314	-0.13689905	0.62576434	0.19125443	-0.24476201	0.6219585	0.0048305326	-0.1331869	0.64822516	-0.1990835	-0.026740988	0.65328149	-0.1391601	-0.044326694	1.0363533	0.0031565073	-0.10769948	1.0973496	0.16086288	-0.06037656	1.0892555	-0.15870659	-0.023302181	0.95646881	0.0063489776	-0.030074335	1.0188159	-0.061040115	0.33059174	0.46925259	0.075714172	0.31222128	0.44943631	0.19299626	0.25770679	0.10756713	0.093664108	0.23462677	0.099214264	0.17347704	0.25635974	0.27279678	0.19765152	0.17956821	0.058123985	0.12754902	0.39756564	0.05133947	0.13445891
2086	20.85	0.14449036	0.5801189	0.1086323	-0.026672903	0.64916302	0.14106232	-0.13691762	0.62584814	0.19120728	-0.24472014	0.6219953	0.004692276	-0.13312677	0.64818927	-0.1992103	-0.026662533	0.6532533	-0.13929082	-0.044280304	1.0364008	0.0030648859	-0.10797608	1.0973712	0.16067599	-0.059978851	1.0893381	-0.15887717	-0.023227182	0.95652051	0.006287837	-0.029930931	1.0188422	-0.061113831	0.33054651	0.46922836	0.075498222	0.3122103	0.44946475	0.19280493	0.25770914	0.10755986	0.093644287	0.23462947	0.09922084	0.17347929	0.25632822	0.27281839	0.19754596	0.17956627	0.058122662	0.12754556	0.39756165	0.051347477	0.1344538
2087	20.86	0.14446405	0.5801322	0.10845556	-0.026718866	0.64918121	0.14095825	-0.13696761	0.62592993	0.19113635	-0.24468343	0.62203247	0.0045268517	-0.13304962	0.64814795	-0.19935269	-0.026584143	0.65323022	-0.13941805	-0.044254444	1.036444	0.0029826937	-0.10828121	1.0973961	0.16050415	-0.059637016	1.08941	-0.15902837	-0.023176111	0.95657007	0.0062615356	-0.029823763	1.0188591	-0.061169197	0.33048553	0.4692049	0.075266602	0.31218472	0.44950055	0.19259274	0.25771133	0.10755133	0.093624039	0.23464653	0.099209282	0.17348868	0.25628937	0.27284503	0.19743015	0.17956358	0.05811853	0.12754074	0.39755792	0.051354897	0.13444797
2088	20.87	0.1444209	0.58015125	0.10826568	-0.026771191	0.64919775	0.14084236	-0.13704416	0.6260108	0.19104385	-0.24465135	0.62206976	0.0043378015	-0.13295323	0.64810437	-0.19950578	-0.026502407	0.65321173	-0.13954143	-0.044252522	1.0364822	0.0029085047	-0.10860664	1.0974244	0.16034915	-0.059353615	1.089467	-0.15914919	-0.023150002	0.9566156	0.0062663908	-0.029760439	1.0188629	-0.06120932	0.33041245	0.4691803	0.075027115	0.31214709	0.44954355	0.19236377	0.25771335	0.1075416	0.093603775	0.23468314	0.099166466	0.17350842	0.25624527	0.27287769	0.19730621	0.17956039	0.058111893	0.12753468	0.39755481	0.051360943	0.13444113
2089	20.88	0.14436058	0.58017548	0.10806435	-0.026822208	0.64921777	0.14071748	-0.13714281	0.62609082	0.1909308	-0.24462257	0.62210712	0.0041291509	-0.13283565	0.64806213	-0.19966255	-0.026412107	0.65319696	-0.13966133	-0.044277363	1.0365154	0.0028397892	-0.10894302	1.0974547	0.16021271	-0.059127869	1.0895161	-0.15922891	-0.023149773	0.95665558	0.0062975354	-0.029749146	1.0188499	-0.061239586	0.33033133	0.46914929	0.074787506	0.31210001	0.44959293	0.19212326	0.25771518	0.10753089	0.093583466	0.23474821	0.099077759	0.17353737	0.25619821	0.27291742	0.19717651	0.1795567	0.058103695	0.12752789	0.39755237	0.051365398	0.13443352
2090	20.89	0.14428352	0.58020319	0.10785381	-0.026870201	0.64924384	0.1405876	-0.1372598	0.62617017	0.19080022	-0.24459491	0.62214386	0.0039049811	-0.13269606	0.64802502	-0.19981615	-0.02630805	0.65318573	-0.13977805	-0.04433049	1.0365414	0.0027734659	-0.10927901	1.0974849	0.16009718	-0.058962032	1.0895696	-0.15926045	-0.023175991	0.95668878	0.0063491125	-0.029796637	1.0188171	-0.061266052	0.33024588	0.46910364	0.074554939	0.31204544	0.44964688	0.19187738	0.25771649	0.10751956	0.093562874	0.23484941	0.098929535	0.17357239	0.25615009	0.27296512	0.19704333	0.1795524	0.058095078	0.12752113	0.39755045	0.051368397	0.13442542
2091	20.9	0.14419133	0.58023254	0.10763738	-0.026915016	0.64927679	0.1404577	-0.13739183	0.62624768	0.19065663	-0.2445659	0.6221795	0.0036691384	-0.13253514	0.64799646	-0.19996252	-0.02618664	0.65317834	-0.13989111	-0.044412037	1.0365573	0.0027067118	-0.10960149	1.0975121	0.1600061	-0.05885358	1.0896338	-0.15924504	-0.023228735	0.95671362	0.0064148269	-0.029906691	1.0187628	-0.061294025	0.33015955	0.46903436	0.074335617	0.31198459	0.44970264	0.1916324	0.25771735	0.107508	0.093541702	0.23498648	0.098714058	0.17360971	0.25610208	0.27302017	0.1969091	0.17954749	0.058086861	0.12751487	0.39754895	0.051370369	0.13441739
2092	20.91	0.14408719	0.58026196	0.1074194	-0.026958035	0.6493158	0.14033331	-0.13753574	0.62632117	0.19050496	-0.24453355	0.6222135	0.0034250684	-0.13235481	0.64797852	-0.2001008	-0.026046322	0.65317566	-0.13999916	-0.044521072	1.0365575	0.0026373193	-0.1098967	1.0975334	0.15994446	-0.058793209	1.0897059	-0.15919353	-0.023307602	0.95672778	0.0064887185	-0.03007967	1.0186859	-0.061327141	0.33007449	0.46893613	0.074133827	0.31191812	0.44975705	0.1913942	0.25771768	0.10749657	0.093519806	0.23514682	0.098437355	0.17364313	0.25605441	0.2730802	0.19677657	0.17954216	0.058079384	0.12750934	0.39754733	0.051372131	0.13441
2093	20.92	0.14397569	0.58028998	0.10720509	-0.027002855	0.64935822	0.14021982	-0.13768907	0.62638745	0.1903502	-0.24449722	0.62224475	0.0031757057	-0.13215767	0.6479726	-0.20023192	-0.025887505	0.65317859	-0.14010016	-0.044656075	1.0365359	0.0025637398	-0.11015096	1.0975452	0.15991772	-0.058776218	1.0897787	-0.15911975	-0.023411777	0.95672864	0.0065659118	-0.030313086	1.0185863	-0.061366909	0.32999097	0.46881223	0.073950485	0.31184686	0.44980762	0.19116733	0.25771756	0.10748571	0.093497292	0.23530844	0.098122665	0.17366315	0.25600635	0.27314148	0.19664868	0.17953676	0.058072811	0.12750472	0.39754486	0.05137466	0.13440396
2094	20.93	0.14386197	0.5803161	0.10700016	-0.027054382	0.64940039	0.14012198	-0.13785019	0.62644287	0.19019722	-0.24445793	0.62227222	0.0029236484	-0.13194681	0.64797852	-0.20035785	-0.025712477	0.6531875	-0.14019174	-0.044814976	1.0364854	0.0024850388	-0.11035069	1.0975428	0.15993057	-0.058809105	1.0898477	-0.15903456	-0.023539978	0.9567132	0.0066429534	-0.030602139	1.0184649	-0.061412556	0.32990582	0.46868054	0.073780144	0.31177203	0.4498533	0.19095512	0.2577171	0.10747597	0.09347467	0.23544934	0.097803589	0.17366177	0.255957	0.27320016	0.19652818	0.17953185	0.058067383	0.12750131	0.39754126	0.051378597	0.13439949
2095	20.94	0.14375089	0.58034082	0.10681057	-0.027117386	0.64943909	0.14004367	-0.13801764	0.62648364	0.19005061	-0.24441788	0.62229462	0.0026717637	-0.13172574	0.64799597	-0.20048132	-0.025525255	0.65320239	-0.14027126	-0.044994427	1.0364022	0.0024007144	-0.11048196	1.0975219	0.15998557	-0.058905689	1.0899117	-0.15894617	-0.023689991	0.95667963	0.0067173371	-0.030939482	1.0183254	-0.061461109	0.32981219	0.46857608	0.073609291	0.31169504	0.44989444	0.19076003	0.25771671	0.10746782	0.093452988	0.23555258	0.097520065	0.1736386	0.25590575	0.27325327	0.19641737	0.17952783	0.058063354	0.12749925	0.39753683	0.0513839	0.13439647
2096	20.95	0.14364633	0.58036493	0.10664217	-0.027194857	0.64947119	0.13998846	-0.1381888	0.62650684	0.18991463	-0.24437955	0.62231177	0.0024241457	-0.13149889	0.64802399	-0.20060472	-0.025331255	0.65322229	-0.14033612	-0.045188446	1.0362874	0.0023103437	-0.11053066	1.0974772	0.16008258	-0.059081089	1.0899696	-0.15886243	-0.023857729	0.95662769	0.0067865653	-0.031314615	1.0181735	-0.061509331	0.32970297	0.46853964	0.073422264	0.31161786	0.44993243	0.1905843	0.25771674	0.10746158	0.093433517	0.23560475	0.097322289	0.17360603	0.25585275	0.27329913	0.19631799	0.17952505	0.058060856	0.12749847	0.39753244	0.051390011	0.1343947
2097	20.96	0.14355066	0.58038965	0.10650046	-0.027286379	0.64949463	0.13995984	-0.13835944	0.62651074	0.18979236	-0.24434521	0.62232501	0.0021871424	-0.13127191	0.64806201	-0.20072778	-0.025137383	0.65324536	-0.14038391	-0.04538726	1.0361456	0.0022132981	-0.11048339	1.0974052	0.16021834	-0.059346355	1.0900215	-0.15879137	-0.024036337	0.95655811	0.0068475184	-0.03171397	1.0180144	-0.061557259	0.32957809	0.46859073	0.073214989	0.31154233	0.44996881	0.19043013	0.25771762	0.10745726	0.093417389	0.23559865	0.097256599	0.17358849	0.2557989	0.27333734	0.19623122	0.17952361	0.058059772	0.12749861	0.39752847	0.051396019	0.13439406
